<svg id="Layer_1" data-name="Layer 1" xmlns="http://www.w3.org/2000/svg" viewBox="0 0 42 33"><defs><style>.cls-1{fill:#84c561;}</style></defs><path class="cls-1" d="M41,12.5a2.9,2.9,0,0,1-2.08,2.76l-6.81,2.1L33,24.5c0,2.21-5.37,4-12,4s-12-1.79-12-4l.89-7.14L6.46,16.3a3.23,3.23,0,0,0-.3.62A1.94,1.94,0,0,1,7,18.5a2,2,0,0,1-.87,1.6l1.6,7.18a1,1,0,0,1-1,1.22H3.25a1,1,0,0,1-1-1.22l1.6-7.18A2,2,0,0,1,3,18.5a2,2,0,0,1,1.14-1.79,4.77,4.77,0,0,1,.36-1l-1.42-.43a2.87,2.87,0,0,1,0-5.52l16.13-5a6.07,6.07,0,0,1,3.58,0l16.13,5A2.9,2.9,0,0,1,41,12.5Zm-3.32,0L21.91,7.64a3.13,3.13,0,0,0-1.82,0L4.32,12.5l2.59.8a4.6,4.6,0,0,1,1.17-.39l12.74-2.39a1,1,0,1,1,.36,2l-10.52,2,9.43,2.9a3,3,0,0,0,1.82,0ZM29.2,18.26l-6.4,2a6,6,0,0,1-3.59,0l-6.41-2-.7,5.64C15.78,26,26.17,26,29.9,23.9Z"/></svg>