<svg width="12" height="11" id="e77e423b-df90-46e9-82cc-c8d36498e26d" data-name="Layer 1" xmlns="http://www.w3.org/2000/svg" viewBox="0 0 29.81 29.79"><title>call</title><g id="b09585b3-8a0d-40c7-80bd-98dd2dd349a8" data-name="Layer 1"><path d="M30.7,3.44a1.11,1.11,0,0,1,.82.47,1.44,1.44,0,0,1,.29.87,26.55,26.55,0,0,1-3.67,13.63,27.17,27.17,0,0,1-9.73,9.73A26.55,26.55,0,0,1,4.78,31.81a1.49,1.49,0,0,1-.87-.29,1.12,1.12,0,0,1-.47-.82L2,24.64a1.28,1.28,0,0,1,.12-.93,1.29,1.29,0,0,1,.7-.64l6.52-2.8a1.43,1.43,0,0,1,.87-.09,1.17,1.17,0,0,1,.76.5l2.85,3.5A20.68,20.68,0,0,0,20,19.93a21.31,21.31,0,0,0,4.22-6.06L20.67,11a1.43,1.43,0,0,1-.47-.73,1.4,1.4,0,0,1,.06-.9l2.8-6.52a1.28,1.28,0,0,1,.64-.64,1.38,1.38,0,0,1,.93-.12Z" transform="translate(-2 -2.02)" fill="#075c8f"/></g></svg>