<svg id="Layer_1" data-name="Layer 1" xmlns="http://www.w3.org/2000/svg" viewBox="0 0 989.08 111.51"><defs><style>.cls-1{fill:#8dc052;}.cls-1,.cls-2{fill-rule:evenodd;}.cls-2{fill:#fff;}.cls-3{fill:#0b558b;}.cls-4{fill:#12548a;}</style></defs><title>easymarkets_logo-cn</title><path class="cls-1" d="M271.27,38.34a13.94,13.94,0,0,1,13.94-13.95h83.63a13.94,13.94,0,0,1,13.94,13.95V122a13.93,13.93,0,0,1-13.94,13.93H285.21A13.93,13.93,0,0,1,271.27,122V38.34Z" transform="translate(-5.48 -24.39)"/><path class="cls-2" d="M327,52.27a27.88,27.88,0,1,1-27.87,27.88A27.88,27.88,0,0,1,327,52.27Z" transform="translate(-5.48 -24.39)"/><path class="cls-3" d="M417.59,81.84c.35,14.71,6.84,22.47,18.88,22.47,9.15,0,14.82-4.75,17-14.36h6.6c-2.66,12.86-11.12,19.8-23.74,19.8-15.75,0-25.71-11.23-25.71-28.72,0-17.72,10.54-30.11,25.48-30.11s24.55,11.58,24.55,30v.93Zm36.25-5.44C453,64,446.31,56.48,436,56.48c-11.92,0-17.14,9.38-18.41,19.92Z" transform="translate(-5.48 -24.39)"/><path class="cls-3" d="M515.23,107.78a15.6,15.6,0,0,1-5.33.81c-6.83,0-7.18-5-7.18-10.07-5.1,7.87-11.35,11.23-21.07,11.23-11.47,0-18.3-5.68-18.3-15.75s6.95-15.87,20.73-17.26l9.38-.93c6.83-.81,8.92-2.32,8.92-7.06,0-9.73-5.79-12.16-14.59-12.16-9.73,0-14.36,3.94-15.29,13.09H466c.58-12,8.57-18.76,22.58-18.76,15.17,0,20.39,6.14,20.39,19.57V95.16c0,7.06.34,7.87,3.7,7.87a7.9,7.9,0,0,0,2.55-.46ZM502.37,77.9c-2,1.74-3.94,2.2-9.61,3l-5.67.82c-7.07.93-16.44,2.89-16.44,11.81,0,6.6,4.75,10.77,12.62,10.77,10.54,0,19.11-6.72,19.11-17.37Z" transform="translate(-5.48 -24.39)"/><path class="cls-3" d="M539,109.75c-14.48,0-22.59-6.83-22.93-19.69h6.59c.81,9.85,6.14,14.24,16.33,14.24,9.26,0,15.4-4.28,15.4-10.88,0-7.76-9.14-9.38-15.29-10.88-9.14-2.09-21.42-3.59-21.42-15.87,0-9.73,7.64-15.75,20.15-15.75,13.33,0,20.5,5.91,21.43,17.72h-6.6c-1-8.34-5.44-12-15.06-12-8.33,0-13.09,3.36-13.09,9.27,0,8,9.73,8.91,15.87,10.42,9.27,2.2,20.73,4.86,20.73,16.56C561.08,102.91,552.17,109.75,539,109.75Z" transform="translate(-5.48 -24.39)"/><path class="cls-3" d="M589.23,110.21c-3.13,8.34-5.56,19-16.45,19a35.25,35.25,0,0,1-6-.46v-5.91a24.91,24.91,0,0,0,5,.57c3.94,0,6.95-2.66,8.92-8.1l2.89-7.53L561.33,52.42h7.41L587,100.13l17.14-47.71h6.95Z" transform="translate(-5.48 -24.39)"/><path class="cls-3" d="M685.71,108.12V42.58l-21.43,65.54h-11l-23.16-65v65h-11.7V31H637.3l21.54,62.3L679.68,31h18.88v77.12Z" transform="translate(-5.48 -24.39)"/><path class="cls-3" d="M762.26,108.24a30.11,30.11,0,0,1-8,1.27q-8,0-9-6.6c-5.44,4.63-11.46,6.6-19.8,6.6-11.58,0-18.76-6.37-18.76-16.56,0-9.61,6-15.17,18.18-16.79l6.83-.93c12.05-1.51,13.09-2.2,13.09-7.18,0-5.91-3.59-8.57-11.58-8.57s-11.47,2.55-12.39,10H709.1c1.16-12.62,9.38-18.87,24.55-18.87,15.87,0,23.28,5.9,23.17,15.63l-.35,29.53c0,3.36.69,4.17,3.13,4.17h1a13.42,13.42,0,0,0,1.61-.24ZM744.54,80.1c-3,1.85-3.71,1.73-13,3-9.15,1-12.16,3.59-12.16,9.26,0,5.44,3.59,8.46,10.07,8.46,10.77,0,15.05-3.94,15.05-14.13Z" transform="translate(-5.48 -24.39)"/><path class="cls-3" d="M797.93,62.85c-2.2-.12-3-.23-4.28-.23a14.93,14.93,0,0,0-11,4.17c-4.05,4.05-5.22,8.11-5.22,19v22.35H765.16V52.19h11.69l-.11,11.23c4.29-8.69,10.19-12.51,19-12.51.81,0,1.16.11,2.2.11Z" transform="translate(-5.48 -24.39)"/><path class="cls-3" d="M839.86,108.12l-17-27-7.53,6.95v20h-12V31h12V75l22.35-22.81h15.18l-21.43,20.5,23.51,35.43Z" transform="translate(-5.48 -24.39)"/><path class="cls-3" d="M867.43,83.11c.34,11.58,5.79,17.83,15.4,17.83,6.95,0,10.66-3.13,13.32-10.19H908c-2.89,12-12.28,19.11-25.36,19.11C866,109.86,855,98.4,855,80.91s11.35-30.22,27.09-30.22c16.33,0,26.64,12.16,26.64,31.15v1.28Zm29-8.11c-.81-9.38-6.14-15.17-14.36-15.17S868.82,65.16,867.54,75Z" transform="translate(-5.48 -24.39)"/><path class="cls-3" d="M941.9,108.24a71.56,71.56,0,0,1-8.22.46c-8.45,0-12.85-2.08-14.36-7.06-.92-2.78-.92-4.51-.92-13.78V61.34H909v-9h9.38V35.4h12.27V52.3H941.9v8.92H930.66V90.64c0,6.95.81,8.11,6.72,8.11h2.2a17.61,17.61,0,0,0,2.32-.23Z" transform="translate(-5.48 -24.39)"/><path class="cls-3" d="M969.24,109.75c-15.87,0-24.32-6.49-25.13-19.46H956c.81,7.3,5,10.54,13.32,10.54,7.41,0,12.16-3.13,12.16-8.11,0-4.28-2.2-6-13.32-8.45-9.73-2.54-22.81-3.94-22.81-16.9,0-10.54,8.45-16.79,22.7-16.79,14.7,0,22.58,6,23.62,17.95H980c-1-6.37-4.64-8.92-12.16-8.92-6.49,0-10.19,2.32-10.19,6.6s2,5.21,14.36,8c9.73,2.09,21.66,4.75,21.66,17.14C993.67,102.8,984.41,109.75,969.24,109.75Z" transform="translate(-5.48 -24.39)"/><path class="cls-3" d="M985.92,41.67A8.64,8.64,0,1,1,994.56,33,8.64,8.64,0,0,1,985.92,41.67Zm0-15.71A7.07,7.07,0,1,0,993,33,7,7,0,0,0,985.92,26Zm2.2,11.35a2.49,2.49,0,0,1-.28-1.18c-.12-2-.39-2.24-1.92-2.24h-2v3.46h-1.88V28.72h4.48c2.16,0,3.22.83,3.22,2.43a2.16,2.16,0,0,1-1.25,2c.75.43,1,.82,1.1,1.92l.08.78c.11.91.15,1,.58,1.46Zm-2-7.15h-2.2v2.36h2c1.45,0,2-.32,2-1.22S987.41,30.17,986.12,30.17Z" transform="translate(-5.48 -24.39)"/><path class="cls-4" d="M193.91,36.24,196,40.47c.8,1.6.69,1.95-1.14,1.95H163.49a1.05,1.05,0,0,0-1.15,1v7.89a1.05,1.05,0,0,0,1.15,1H242a1.05,1.05,0,0,0,1.14-1V43.56a1.05,1.05,0,0,0-1.14-1H212.78a2.38,2.38,0,0,1-2.52-1.26l-2.4-5a2.4,2.4,0,0,0-2.06-1.38H194.6c-.69,0-1,.69-.69,1.38Z" transform="translate(-5.48 -24.39)"/><path class="cls-4" d="M157.65,70v54.45c0,1-.46,1.37-1.37,1.37h-8.57c-1,0-1.38-.46-1.38-1.37V71.69a2,2,0,0,0-2.06-1.95h-8.92c-3.43,0-3.77-.8-2.4-3.2l17-29.63a3.69,3.69,0,0,1,3.77-2.06h8.46c3.09,0,2.64.92,1.27,3.2L150.34,61.51c-1.26,2.06-1.15,2.4,1.49,2.4,4.11-.12,5.83,2.29,5.83,6.06Z" transform="translate(-5.48 -24.39)"/><path class="cls-4" d="M167.6,74.33h70.23a1,1,0,0,1,1,1v7.89a1,1,0,0,1-1,1H167.6a1,1,0,0,1-1-1V75.35a1.1,1.1,0,0,1,1-1Z" transform="translate(-5.48 -24.39)"/><path class="cls-4" d="M167.6,58.42h70.23a1,1,0,0,1,1,.92v7.89a1,1,0,0,1-1,1H167.6a1,1,0,0,1-1-1V59.34a1.1,1.1,0,0,1,1-.92Z" transform="translate(-5.48 -24.39)"/><path class="cls-4" d="M231.54,90.22H174c-5.26,0-9.5,4-9.5,8.8v18c0,4.81,4.23,8.81,9.5,8.81h57.53c5.26,0,9.5-4,9.5-8.81V99C241,94.11,236.81,90.22,231.54,90.22ZM230.4,114a1.94,1.94,0,0,1-2.06,1.83H177.1a1.91,1.91,0,0,1-1.95-1.83V101.89a1.91,1.91,0,0,1,1.95-1.83h51.24a1.94,1.94,0,0,1,2.06,1.83V114Z" transform="translate(-5.48 -24.39)"/><path class="cls-4" d="M103.44,82.33H40.65c-1.83,0-1.71-.58-.58-1.71l2.86-3.2a2.83,2.83,0,0,1,2.63-1H99.21c5.26,0,9.49-4,9.49-8.8V43.67c0-4.92-4.23-8.81-9.49-8.81H27.49c-5.14,0-9.49,4-9.49,8.81V67.58c0,4.35,3.43,7.89,7.77,8.69,1.84.34,1.6,1,.34,2.29L6.91,99.26c-2.17,2.4-2.06,3.21,1.71,3.21h9a5,5,0,0,0,3.89-1.72l6.63-7.2a4.47,4.47,0,0,1,3.43-1.26h8c1.38,0,1.26.69.58,1.49L13.32,122.7c-2.18,2.41-2.18,3.21,1.71,3.21h9A4.82,4.82,0,0,0,28,124.19L55.86,93.77a4.57,4.57,0,0,1,3.89-1.49h11c1.6,0,1.94.69,1.14,1.6L45.12,122.7c-2.18,2.41-2.07,3.21,1.71,3.21h9a5,5,0,0,0,3.89-1.72L87.43,93.88c1.26-1.26,2.74-1.49,4.8-1.49h9.38a3.68,3.68,0,0,1,3.77,3.43v12.81c0,4.12-3.66,7.43-8,7.43H84.46c-2.06,0-4.12.11-5.38,1.6l-5,5.72c-1,1.26-1.26,2.52.91,2.52H99.21c9.38,0,16.92-4.92,16.92-15.78V94.22C116.14,87.59,110.42,82.33,103.44,82.33Zm-74.8-35.8a1.9,1.9,0,0,1,1.94-1.83H96a1.94,1.94,0,0,1,2.06,1.83v2.4A1.94,1.94,0,0,1,96,50.76H30.59a2,2,0,0,1-1.94-1.83Zm1.94,19.9a1.9,1.9,0,0,1-1.94-1.83V62.43a1.9,1.9,0,0,1,1.94-1.83H96a1.94,1.94,0,0,1,2.06,1.83V64.6A1.94,1.94,0,0,1,96,66.43Z" transform="translate(-5.48 -24.39)"/></svg>