<svg width="12" height="9" id="ca0264dc-5dba-4fc7-85b0-2e812d01e199" data-name="Layer 1" xmlns="http://www.w3.org/2000/svg" viewBox="0 0 29.83 22.37"><title>mail</title><g id="a6648d89-1fee-41d3-86c7-e06fd99b17af" data-name="Layer 1"><path d="M16.91,16.91a3.63,3.63,0,0,1-1.86-.7,13.68,13.68,0,0,1-1.81-1.28l-.58-.41Q5.49,9.27,2.93,7.3L2.52,7A1.32,1.32,0,0,1,2,5.9V4.8a2.66,2.66,0,0,1,.82-2A2.72,2.72,0,0,1,4.8,2H29a2.66,2.66,0,0,1,2,.82,2.7,2.7,0,0,1,.82,2V5.9A1.32,1.32,0,0,1,31.31,7L31,7.24q-2.5,2-9.85,7.28l-.58.41a13.68,13.68,0,0,1-1.81,1.28A3.69,3.69,0,0,1,16.91,16.91ZM31.24,9.4q-2.1,1.63-9,6.58l-.58.47A16,16,0,0,1,19.48,18a5.22,5.22,0,0,1-2.56.82A5.41,5.41,0,0,1,14.36,18a24.92,24.92,0,0,1-2.21-1.51L11.57,16q-7-5.13-9-6.58a.39.39,0,0,0-.4,0,.32.32,0,0,0-.2.32V21.57a2.66,2.66,0,0,0,.82,2,2.7,2.7,0,0,0,2,.82H29a2.66,2.66,0,0,0,2-.82,2.7,2.7,0,0,0,.82-2V9.69a.39.39,0,0,0-.2-.35A.3.3,0,0,0,31.24,9.4Z" transform="translate(-2 -2)" fill="#075c8f"/></g></svg>