<svg xmlns="http://www.w3.org/2000/svg" xmlns:xlink="http://www.w3.org/1999/xlink" width="78" height="55" viewBox="0 0 78 55">

    <svg xmlns="http://www.w3.org/2000/svg" width="12" height="22" data-name="Layer 1" viewBox="0 0 17.71 34.34" id="fb-small" y="33"><path d="M5.17 19H0v-6.1h5.17V8.05a8 8 0 012.15-5.94A7.74 7.74 0 0113 0a33.14 33.14 0 014.7.27V5.7h-3.21a3.13 3.13 0 00-2.49.8 3.43 3.43 0 00-.54 2.15v4.23h5.7l-.8 6.1h-4.9v15.36H5.17z" fill="#075c8f" data-name="Layer 1"/></svg>
    
    
    
    <svg xmlns="http://www.w3.org/2000/svg" width="22" height="22" data-name="Layer 1" viewBox="0 0 34.34 34.35" id="in-small" x="12" y="33"><path d="M1.23 7.05A4 4 0 010 4.14a4 4 0 011.23-2.91A4 4 0 014.14 0a4 4 0 012.91 1.23 4 4 0 011.23 2.91 4 4 0 01-1.23 2.91 4 4 0 01-2.91 1.23 4 4 0 01-2.91-1.23zm-.69 27.3V11.42h7.13v22.92H.54zm26.68 0v-11.2a12.32 12.32 0 00-.46-4 3.23 3.23 0 00-3.3-2.07A3.58 3.58 0 0020 18.93a8.55 8.55 0 00-.76 4.07v11.34h-7V11.42H19v3.14h.08A6.13 6.13 0 0121.54 12a7.55 7.55 0 014.29-1.23q5 0 7 3.14c1 1.69 1.53 4.29 1.53 7.82v12.6h-7.14z" fill="#075c8f" data-name="Layer 1"/></svg>
    
    <svg xmlns="http://www.w3.org/2000/svg" width="23" height="24" xmlns:xlink="http://www.w3.org/1999/xlink" id="info-small" data-name="Layer 1" x="55" viewBox="0 0 50 50"><defs><style>.cls-1{fill:url(#radial-gradient);}.cls-2{fill:url(#radial-gradient-2);}.cls-3{fill:url(#radial-gradient-3);}</style><radialGradient id="radial-gradient" cx="0.39" cy="54.68" r="70.62" gradientUnits="userSpaceOnUse"><stop offset="0" stop-color="#fec053"/><stop offset="0.33" stop-color="#f2203e"/><stop offset="0.65" stop-color="#b729a8"/><stop offset="1" stop-color="#5342d6"/></radialGradient><radialGradient id="radial-gradient-2" cx="0.39" cy="54.68" r="70.62" xlink:href="#radial-gradient"/><radialGradient id="radial-gradient-3" cx="0.39" cy="54.68" r="70.62" xlink:href="#radial-gradient"/></defs><title>insta</title><path class="cls-1" d="M35.44,49.89H14.17A14.08,14.08,0,0,1,.11,35.83V14.56A14.08,14.08,0,0,1,14.17.5H35.44A14.08,14.08,0,0,1,49.5,14.56V35.83A14.08,14.08,0,0,1,35.44,49.89ZM14.17,4.73a9.83,9.83,0,0,0-9.82,9.83V35.83a9.82,9.82,0,0,0,9.82,9.82H35.44a9.83,9.83,0,0,0,9.83-9.82V14.56a9.84,9.84,0,0,0-9.83-9.83Z"/><path class="cls-2" d="M24.81,37.84A12.65,12.65,0,1,1,37.45,25.19,12.66,12.66,0,0,1,24.81,37.84Zm0-21.06a8.42,8.42,0,1,0,8.41,8.41A8.42,8.42,0,0,0,24.81,16.78Z"/><path class="cls-3" d="M41,11.82a3,3,0,1,1-3-3A3,3,0,0,1,41,11.82Z"/></svg>



    <svg xmlns="http://www.w3.org/2000/svg" width="22" height="20" data-name="Layer 1" viewBox="0 0 36.98 29.98" id="twitter-small" x="34" y="33"><path d="M33.17 7.45v1a21.57 21.57 0 01-1.43 7.67A23.34 23.34 0 0127.67 23a19.61 19.61 0 01-6.84 5 21.65 21.65 0 01-9.22 2A21.15 21.15 0 010 26.6a17.6 17.6 0 001.82.09 15.09 15.09 0 009.44-3.2 7.67 7.67 0 01-4.46-1.56 7.22 7.22 0 01-2.64-3.72 5.45 5.45 0 001.39.17 5.56 5.56 0 002-.35 7.37 7.37 0 01-4.33-2.6 7.2 7.2 0 01-1.73-4.76v-.09a8 8 0 003.46.95 7.32 7.32 0 01-3.39-6.32 7.27 7.27 0 011-3.81 21.9 21.9 0 006.88 5.53 21.22 21.22 0 008.7 2.34A8.46 8.46 0 0118 7.54a7.29 7.29 0 012.21-5.33A7.23 7.23 0 0125.55 0a7.39 7.39 0 015.54 2.34A15.86 15.86 0 0035.94.52a7.27 7.27 0 01-3.38 4.16A15.87 15.87 0 0037 3.55a16.4 16.4 0 01-3.83 3.9z" fill="#00a7e1" data-name="Layer 1"/></svg>
    <svg xmlns="http://www.w3.org/2000/svg" width="29" height="33" data-name="Layer 1" viewBox="0 0 44.36 35.93" id="weibo-small"><g data-name="Layer 1"><path d="M38.46 21.73c-.63-2.08-2.34-3.58-5.11-4.5a2 2 0 01-.78-.35q-.18-.18 0-.78c.75-1.91.76-3.36 0-4.37a4.32 4.32 0 00-3.77-1.52 16.05 16.05 0 00-6.15 1.47h-.05c-.87.29-1.18.12-1-.52q.95-3 0-4.59a3.5 3.5 0 00-3.33-1.52A11.59 11.59 0 0013 6.74a29 29 0 00-6.41 4.94A27.61 27.61 0 001.73 18 12.88 12.88 0 000 24.07a8.69 8.69 0 002.77 6.32 17.67 17.67 0 006.89 4.07 27.46 27.46 0 009 1.47 26.62 26.62 0 0011.39-2.43A17.14 17.14 0 0037 28q2.32-3.31 1.46-6.27zm-8.75 6.07a12.07 12.07 0 01-4.5 3.64 18.52 18.52 0 01-6.58 1.82 18.77 18.77 0 01-6.8-.52 12.2 12.2 0 01-5.15-2.69 6.37 6.37 0 01-2.21-4.2 6.51 6.51 0 011.39-4.55 12.57 12.57 0 014.5-3.64 18.08 18.08 0 016.54-1.82 18.77 18.77 0 016.8.52 12.2 12.2 0 015.15 2.69 6.5 6.5 0 012.25 4.16 6.89 6.89 0 01-1.39 4.59z" fill="#df2029"/><path d="M19.4 19.57a8 8 0 00-5.28.43 7.1 7.1 0 00-3.72 3.46 5.34 5.34 0 00-.13 4.63A5.65 5.65 0 0014 31.25a7.58 7.58 0 005.5-.35 6.87 6.87 0 003.85-3.72 5.13 5.13 0 000-4.72 5.77 5.77 0 00-3.95-2.89zm-2.68 8a2.75 2.75 0 01-1.52 1.21 2.31 2.31 0 01-1.86-.09 1.92 1.92 0 01-1.08-1.26 2.07 2.07 0 01.3-1.65 2.85 2.85 0 011.44-1.2 2.49 2.49 0 011.82 0A1.84 1.84 0 0117 25.79a2.16 2.16 0 01-.28 1.75zm2.33-3a1.22 1.22 0 01-.56.48.81.81 0 01-.74 0 .77.77 0 01-.43-.48.7.7 0 01.13-.61 1.54 1.54 0 01.56-.48.71.71 0 01.69 0 .54.54 0 01.43.43.8.8 0 01-.08.64z"/><path d="M28.84 1.42a1.71 1.71 0 00.35 1.65 1.51 1.51 0 001.65.48 8.42 8.42 0 019.48 5 8 8 0 01.22 5.72 1.48 1.48 0 00.35 1.73 1.85 1.85 0 001.6.52 1.55 1.55 0 001.26-1.17 11 11 0 00-.35-8.14 10.93 10.93 0 00-5.2-5.72A11.38 11.38 0 0030.15.28a1.64 1.64 0 00-1.31 1.14z" fill="#e99314"/><path d="M34.69 9.87A2.57 2.57 0 0032.05 9a1.37 1.37 0 01-1.43-.43 1.63 1.63 0 01-.3-1.43 1.22 1.22 0 011-1 5.58 5.58 0 013.94.56 5.93 5.93 0 012.6 2.9 5.21 5.21 0 01.14 3.9 1.28 1.28 0 01-1.08 1 1.53 1.53 0 01-1.39-.43 1.34 1.34 0 01-.3-1.43 2.66 2.66 0 00-.54-2.77z" fill="#e99314"/></g></svg>
    <svg xmlns="http://www.w3.org/2000/svg" width="26" height="19" data-name="Layer 1" viewBox="0 0 41.3 29.05" id="yt-small" x="29"><path d="M40.46 4.54a35.2 35.2 0 01.76 6.2l.08 3.78-.08 3.78a33.83 33.83 0 01-.76 6.28 5.36 5.36 0 01-3.7 3.63 55 55 0 01-9.23.76l-6.88.08-6.88-.05a52.8 52.8 0 01-9.23-.76 5.36 5.36 0 01-3.7-3.63 35.53 35.53 0 01-.76-6.28L0 14.52c0-1.11 0-2.37.08-3.78a33.37 33.37 0 01.76-6.2A5.21 5.21 0 012.2 2.2 5.27 5.27 0 014.54.84a55 55 0 019.23-.76L20.64 0l6.88.08a52.8 52.8 0 019.23.76 5.21 5.21 0 012.34 1.36 5.14 5.14 0 011.37 2.34zm-24 16.18l10.81-6.2-10.86-6.13z" fill="#df2029" data-name="Layer 1"/></svg></svg>