<svg width="22" height="22" id="19b48bc6-cab7-4e94-a524-1410cf896679" data-name="Layer 1" xmlns="http://www.w3.org/2000/svg" viewBox="0 0 34.34 34.35"><title>in</title><g id="670fd19b-3fd9-4ba0-a901-808df01f5cee" data-name="Layer 1"><path d="M3.23,8.05A4,4,0,0,1,2,5.14,4,4,0,0,1,3.23,2.23,4,4,0,0,1,6.14,1,4,4,0,0,1,9.05,2.23a4,4,0,0,1,1.23,2.91A4,4,0,0,1,9.05,8.05,4,4,0,0,1,6.14,9.28,4,4,0,0,1,3.23,8.05Zm-.69,27.3V12.42H9.67V35.34H2.54Zm26.68,0V24.15a12.32,12.32,0,0,0-.46-4,3.23,3.23,0,0,0-3.3-2.07A3.58,3.58,0,0,0,22,19.93,8.55,8.55,0,0,0,21.24,24V35.34h-7V12.42H21v3.14h.08A6.13,6.13,0,0,1,23.54,13a7.55,7.55,0,0,1,4.29-1.23q5,0,7,3.14c1,1.69,1.53,4.29,1.53,7.82V35.33H29.22Z" transform="translate(-2 -1)" fill="#075c8f"/></g></svg>