<svg width="23" height="24" id="f9780609-4721-426d-898e-9c679bec9dae" data-name="Layer 1" xmlns="http://www.w3.org/2000/svg" viewBox="0 0 35.66 35.66"><title>info</title><g id="caeba842-7ac2-491d-b620-142f74ad9201" data-name="Layer 1"><path d="M11.54,17.6a10.57,10.57,0,0,1,9.15,5.19,9.69,9.69,0,0,1,0,10,10.14,10.14,0,0,1-3.52,3.52,9.69,9.69,0,0,1-10,0,10.5,10.5,0,0,1-3.8-3.86A10.61,10.61,0,0,1,2,27.14V9.8A1.06,1.06,0,0,1,3.11,8.69H5.34a1.07,1.07,0,0,1,.8.31,1.09,1.09,0,0,1,.31.8V27.28a5.81,5.81,0,0,0,1.78,4.28,5.22,5.22,0,0,0,4.14,1.64A5.65,5.65,0,0,0,17.6,28,5.19,5.19,0,0,0,16,23.83a5.85,5.85,0,0,0-4.28-1.78h-.77a1.07,1.07,0,0,1-.8-.31,1.09,1.09,0,0,1-.31-.8V18.71a1.06,1.06,0,0,1,1.11-1.11Z" transform="translate(-2 -2)" fill="#075c8f"/><path d="M16.55,2A21.59,21.59,0,0,1,26.86,5.17a22.64,22.64,0,0,1,7.63,7.63,21.56,21.56,0,0,1,3.17,10.31,1.23,1.23,0,0,1-.31.84,1,1,0,0,1-.8.35H35.44a1.07,1.07,0,0,1-.8-.31,1.09,1.09,0,0,1-.31-.8,17.93,17.93,0,0,0-2.65-8.67A19,19,0,0,0,16.43,5.36a1,1,0,0,1-.73-.31,1.09,1.09,0,0,1-.31-.8V3.11a1,1,0,0,1,.35-.8A1.14,1.14,0,0,1,16.55,2Z" transform="translate(-2 -2)" fill="#84c561"/><path d="M16.55,8.69a15.2,15.2,0,0,1,7,2.26,15.89,15.89,0,0,1,5.19,5.19,15.16,15.16,0,0,1,2.26,7,1.23,1.23,0,0,1-.31.84,1,1,0,0,1-.8.35H28.74a1.07,1.07,0,0,1-.8-.31,1,1,0,0,1-.31-.73,12.49,12.49,0,0,0-1.81-5.47,12.23,12.23,0,0,0-4-4A11.72,11.72,0,0,0,16.42,12a1,1,0,0,1-.73-.31,1.09,1.09,0,0,1-.31-.8V9.8A1.18,1.18,0,0,1,15.73,9,.89.89,0,0,1,16.55,8.69Z" transform="translate(-2 -2)" fill="#84c561"/></g></svg>