<svg width="13" height="11" id="0aea6294-17d2-4564-a14d-6adedaa2fbfe" data-name="Capa 1" xmlns="http://www.w3.org/2000/svg" viewBox="0 0 16.09 13.13"><title>live-chat-icon</title><path d="M6.5,3.48c-3.59,0-6.5,2.24-6.5,5A4.47,4.47,0,0,0,1.84,12a4.22,4.22,0,0,1-.93,2.65,6.17,6.17,0,0,0,3.4-1.42,8.58,8.58,0,0,0,2.19.29c3.59,0,6.5-2.24,6.5-5S10.09,3.48,6.5,3.48Z" transform="translate(0 -1.48)" fill="#075c8f"/><path d="M15.14,9A4.15,4.15,0,0,0,16,6.48c0-2.76-2.91-5-6.5-5A7.71,7.71,0,0,0,5.35,2.63,8.88,8.88,0,0,1,7,2.48c3.87,0,7,2.46,7,5.5a4.7,4.7,0,0,1-1.31,3.2,6.11,6.11,0,0,0,3.4,1.43C15.18,11.75,15.12,9.84,15.14,9Z" transform="translate(0 -1.48)" fill="#075c8f"/></svg>