<?xml version="1.0" encoding="utf-8"?>
<!-- Generator: Adobe Illustrator 22.1.0, SVG Export Plug-In . SVG Version: 6.00 Build 0)  -->
<svg version="1.1" baseProfile="tiny" xmlns="http://www.w3.org/2000/svg" xmlns:xlink="http://www.w3.org/1999/xlink" x="0px"
	 y="0px" viewBox="0 0 378 342" xml:space="preserve">
<g id="Layer_1">
	<g>
		<path fill="#075C8F" d="M203.1,258.6c-1.8,0-3.4-1.2-3.9-3c-0.6-2.1,0.7-4.3,2.8-4.9c31.4-8.4,56.7-33.1,66-64.3
			c0.6-2.1,2.9-3.3,5-2.7c2.1,0.6,3.3,2.9,2.7,5c-10.1,33.9-37.5,60.6-71.6,69.7C203.8,258.6,203.4,258.6,203.1,258.6z"/>
		<g>
			<polygon fill="#075C8F" points="148,89 141,89 141,110 127,110 127,201 163,201 163,110 148,110 			"/>
			<path fill="#075C8F" d="M235,60v28h14v32h7V88h14v-9.4c-6.2-7.1-13.3-13.5-21-19V60H235z"/>
			<polygon fill="#84C561" points="202,43 194,43 194,61 180,61 180,199 194,199 194,217 202,217 202,199 216,199 216,61 202,61 			
				"/>
			<path fill="#84C561" d="M94,112V71.3c-2.8,2.6-5.5,5.3-8,8.1V112H72v110.5c9.1,15.3,21.4,28.4,36,38.4V112H94z"/>
		</g>
		<g>
			<polygon fill="#075C8F" points="42,190 38,190 38,200 30,200 30,266 38,266 38,276 42,276 42,266 50,266 50,200 42,200 			"/>
			<polygon fill="#075C8F" points="310,0 306,0 306,30 298,30 298,85 318,85 318,30 310,30 			"/>
			<polygon fill="#075C8F" points="340,57 336,57 336,70 328,70 328,94 336,94 336,125 340,125 340,94 348,94 348,70 340,70 			"/>
			<polygon fill="#075C8F" points="370,88 370,59 366,59 366,88 358,88 358,139 366,139 366,149 370,149 370,139 378,139 378,88 			
				"/>
			<path fill="#84C561" d="M288,92.7V41v-1h-8V6h-4v34h-8v1v26.5C275.7,75,282.4,83.4,288,92.7z"/>
			<polygon fill="#84C561" points="12,164 8,164 8,183 0,183 0,217 8,217 8,231 12,231 12,217 20,217 20,183 12,183 			"/>
			<path fill="#84C561" d="M60,217v46h8v29h4v-29h8v-18.9c-7.1-8.2-13.3-17.3-18.2-27.1H60z"/>
		</g>
		<path fill="#075C8F" d="M353.5,307.9l-71-71c16-21.7,25.5-48.5,25.5-77.5C308,87.4,249.6,29,177.5,29S47,87.4,47,159.5
			S105.4,290,177.5,290c29,0,55.8-9.5,77.5-25.5l71,71c3.7,3.7,8.6,5.7,13.8,5.7c5.2,0,10.1-2,13.8-5.7c0,0,0,0,0,0
			c3.7-3.7,5.7-8.6,5.7-13.8S357.2,311.6,353.5,307.9z M248.5,258.1C228,273,203.4,281,177.5,281c-32.5,0-63-12.6-85.9-35.6
			C68.6,222.5,56,192,56,159.5c0-32.5,12.6-63,35.6-85.9S145,38,177.5,38s63,12.6,85.9,35.6S299,127,299,159.5
			c0,25.9-8,50.5-22.9,71c-1.8,2.4-3.6,4.8-5.6,7.1c-2.2,2.7-4.6,5.3-7.1,7.7s-5.1,4.9-7.7,7.1C253.3,254.5,251,256.3,248.5,258.1z
			 M347.2,329.2L347.2,329.2c-2,2-4.6,3.1-7.4,3.1s-5.5-1.1-7.4-3.1L262,258.9c5.3-4.5,10.3-9.5,14.8-14.8l70.3,70.3
			c2,2,3.1,4.6,3.1,7.4S349.1,327.2,347.2,329.2z"/>
	</g>
</g>
<g id="off">
</g>
<g id="zoom">
</g>
<g id="form">
	<g id="original" display="none">
	</g>
	<g id="new">
	</g>
</g>
<g id="Layer_7">
</g>
</svg>
