<?xml version="1.0" encoding="utf-8"?>
<!-- Generator: Adobe Illustrator 22.1.0, SVG Export Plug-In . SVG Version: 6.00 Build 0)  -->
<svg version="1.1" baseProfile="tiny" xmlns="http://www.w3.org/2000/svg" xmlns:xlink="http://www.w3.org/1999/xlink" x="0px"
	 y="0px" viewBox="0 0 32 35" xml:space="preserve">
<g id="Layer_1">
	<path fill="#84C561" d="M27.7,2.1c0.5,0,1,0.2,1.4,0.6c0.4,0.4,0.6,0.8,0.6,1.4v27.1c0,0.5-0.2,1-0.6,1.4c-0.4,0.4-0.8,0.6-1.4,0.6
		H4.4c-0.5,0-1-0.2-1.4-0.6c-0.4-0.4-0.6-0.8-0.6-1.4V4.1c0-0.5,0.2-1,0.6-1.4c0.4-0.4,0.8-0.6,1.4-0.6H27.7z M26.7,30.2V5H5.4v25.2
		H26.7z M9.3,11.8c-0.3,0-0.5-0.1-0.7-0.3s-0.3-0.4-0.3-0.7V8.9c0-0.3,0.1-0.5,0.3-0.7S9,7.9,9.3,7.9h1.9c0.3,0,0.5,0.1,0.7,0.3
		s0.3,0.4,0.3,0.7v1.9c0,0.3-0.1,0.5-0.3,0.7s-0.4,0.3-0.7,0.3H9.3z M9.3,19.6c-0.3,0-0.5-0.1-0.7-0.3s-0.3-0.4-0.3-0.7v-1.9
		c0-0.3,0.1-0.5,0.3-0.7s0.4-0.3,0.7-0.3h1.9c0.3,0,0.5,0.1,0.7,0.3s0.3,0.4,0.3,0.7v1.9c0,0.3-0.1,0.5-0.3,0.7s-0.4,0.3-0.7,0.3
		H9.3z M9.3,27.3c-0.3,0-0.5-0.1-0.7-0.3s-0.3-0.4-0.3-0.7v-1.9c0-0.3,0.1-0.5,0.3-0.7s0.4-0.3,0.7-0.3h1.9c0.3,0,0.5,0.1,0.7,0.3
		s0.3,0.4,0.3,0.7v1.9c0,0.3-0.1,0.5-0.3,0.7s-0.4,0.3-0.7,0.3H9.3z M14.6,11.3c-0.1,0-0.2-0.1-0.3-0.2c-0.1-0.1-0.2-0.2-0.2-0.3
		V8.9c0-0.1,0.1-0.2,0.2-0.3c0.1-0.1,0.2-0.2,0.3-0.2h8.7c0.1,0,0.2,0.1,0.3,0.2c0.1,0.1,0.2,0.2,0.2,0.3v1.9c0,0.1,0,0.2-0.2,0.3
		c-0.1,0.1-0.2,0.2-0.3,0.2H14.6z M14.6,19.1c-0.1,0-0.2-0.1-0.3-0.2c-0.1-0.1-0.2-0.2-0.2-0.3v-1.9c0-0.1,0.1-0.2,0.2-0.3
		c0.1-0.1,0.2-0.2,0.3-0.2h8.7c0.1,0,0.2,0.1,0.3,0.2c0.1,0.1,0.2,0.2,0.2,0.3v1.9c0,0.1,0,0.2-0.2,0.3c-0.1,0.1-0.2,0.2-0.3,0.2
		H14.6z M14.6,26.8c-0.1,0-0.2-0.1-0.3-0.2c-0.1-0.1-0.2-0.2-0.2-0.3v-1.9c0-0.1,0.1-0.2,0.2-0.3c0.1-0.1,0.2-0.2,0.3-0.2h8.7
		c0.1,0,0.2,0.1,0.3,0.2c0.1,0.1,0.2,0.2,0.2,0.3v1.9c0,0.1,0,0.2-0.2,0.3c-0.1,0.1-0.2,0.2-0.3,0.2H14.6z"/>
</g>
<g id="off">
</g>
<g id="zoom">
</g>
<g id="form">
	<g id="original" display="none">
	</g>
	<g id="new">
	</g>
</g>
<g id="Layer_7">
</g>
</svg>
