<?xml version="1.0" encoding="utf-8"?>
<!-- Generator: Adobe Illustrator 22.1.0, SVG Export Plug-In . SVG Version: 6.00 Build 0)  -->
<svg version="1.1" baseProfile="tiny" xmlns="http://www.w3.org/2000/svg" xmlns:xlink="http://www.w3.org/1999/xlink" x="0px"
	 y="0px" viewBox="0 0 29 33" xml:space="preserve">
<g id="Layer_1">
	<path fill="#84C561" d="M24.5,4.8c0.8,0,1.4,0.3,2,0.8s0.8,1.2,0.8,2v20.6c0,0.8-0.3,1.4-0.8,2s-1.2,0.8-2,0.8H3.9
		c-0.8,0-1.4-0.3-2-0.8s-0.8-1.2-0.8-2V7.6c0-0.8,0.3-1.4,0.8-2s1.2-0.8,2-0.8h2.8V2c0-0.3,0.1-0.5,0.3-0.7s0.4-0.3,0.7-0.3h1.9
		c0.3,0,0.5,0.1,0.7,0.3s0.3,0.4,0.3,0.7v2.8h7.5V2c0-0.3,0.1-0.5,0.3-0.7s0.4-0.3,0.7-0.3h1.9c0.3,0,0.5,0.1,0.7,0.3
		s0.3,0.4,0.3,0.7v2.8H24.5z M24.5,27.9V10.5H3.9v17.5c0,0.1,0,0.2,0.1,0.2s0.2,0.1,0.2,0.1h19.9c0.1,0,0.2,0,0.2-0.1
		S24.5,28,24.5,27.9z M7.6,22.6c-0.3,0-0.5-0.1-0.7-0.3S6.7,22,6.7,21.7v-5.6c0-0.3,0.1-0.5,0.3-0.7s0.4-0.3,0.7-0.3h5.6
		c0.3,0,0.5,0.1,0.7,0.3s0.3,0.4,0.3,0.7v5.6c0,0.3-0.1,0.5-0.3,0.7s-0.4,0.3-0.7,0.3H7.6z"/>
</g>
<g id="off">
</g>
<g id="zoom">
</g>
<g id="form">
	<g id="original" display="none">
	</g>
	<g id="new">
	</g>
</g>
<g id="Layer_7">
</g>
</svg>
