<?xml version="1.0" encoding="utf-8"?>
<!-- Generator: Adobe Illustrator 22.1.0, SVG Export Plug-In . SVG Version: 6.00 Build 0)  -->
<svg version="1.1" baseProfile="tiny" xmlns="http://www.w3.org/2000/svg" xmlns:xlink="http://www.w3.org/1999/xlink" x="0px"
	 y="0px" viewBox="0 0 32 34" xml:space="preserve">
<g id="Layer_1">
	<path fill="#84C561" d="M16,3.5c2.5,0,4.9,0.6,7,1.9s3.9,3,5.1,5.1c1.3,2.2,1.9,4.5,1.9,7s-0.6,4.9-1.9,7c-1.3,2.2-3,3.9-5.1,5.1
		s-4.5,1.9-7,1.9c-2.5,0-4.9-0.6-7-1.9s-3.9-3-5.1-5.1c-1.3-2.2-1.9-4.5-1.9-7s0.6-4.9,1.9-7c1.3-2.2,3-3.9,5.1-5.1S13.5,3.5,16,3.5
		z M4.7,17.5c0,0.8,0.1,1.5,0.2,2.3h4.4c-0.1-0.8-0.1-1.6-0.1-2.3s0-1.4,0.1-2.3H4.9C4.8,16,4.7,16.8,4.7,17.5z M9.7,12.6
		c0.4-2.1,1-3.9,1.8-5.4c-1.2,0.6-2.3,1.3-3.3,2.2s-1.7,2-2.3,3.2H9.7z M5.9,22.5c0.6,1.2,1.3,2.3,2.3,3.2s2,1.6,3.3,2.2
		c-0.8-1.5-1.4-3.3-1.8-5.4H5.9z M20,19.8c0.1-0.9,0.1-1.6,0.1-2.3s0-1.4-0.1-2.2h-7.9C12,16.1,12,16.9,12,17.5s0,1.4,0.1,2.3H20z
		 M16,6.2c-0.6,0-1.2,0.5-1.9,1.6c-0.8,1.2-1.3,2.8-1.7,4.7h7.1c-0.4-1.9-0.9-3.5-1.7-4.7C17.2,6.8,16.6,6.2,16,6.2z M16,28.9
		c0.6,0,1.2-0.5,1.9-1.6c0.8-1.2,1.3-2.8,1.7-4.7h-7.1c0.4,1.9,0.9,3.5,1.7,4.7C14.8,28.3,15.5,28.9,16,28.9z M26.2,12.6
		c-0.6-1.2-1.3-2.3-2.3-3.2s-2-1.6-3.3-2.2c0.8,1.5,1.4,3.3,1.8,5.4H26.2z M20.6,27.9c1.2-0.6,2.3-1.3,3.3-2.2s1.7-2,2.3-3.2h-3.8
		C22,24.6,21.4,26.4,20.6,27.9z M22.7,19.8h4.4c0.2-0.8,0.2-1.5,0.2-2.3s-0.1-1.5-0.2-2.3h-4.4c0.1,0.8,0.1,1.6,0.1,2.3
		S22.8,19,22.7,19.8z"/>
</g>
<g id="off">
</g>
<g id="zoom">
</g>
<g id="form">
	<g id="original" display="none">
	</g>
	<g id="new">
	</g>
</g>
<g id="Layer_7">
</g>
</svg>
