<?xml version="1.0" encoding="utf-8"?>
<!-- Generator: Adobe Illustrator 22.1.0, SVG Export Plug-In . SVG Version: 6.00 Build 0)  -->
<svg version="1.1" baseProfile="tiny" xmlns="http://www.w3.org/2000/svg" xmlns:xlink="http://www.w3.org/1999/xlink" x="0px"
	 y="0px" viewBox="0 0 38 27" xml:space="preserve">
<g id="Layer_1">
	<path fill="#84C561" d="M34.4,1.8c0.4,0,0.7,0.1,1,0.4s0.4,0.6,0.4,1v19.7c0,0.4-0.1,0.7-0.4,1s-0.6,0.4-1,0.4H5.3
		c-0.9,0-1.7-0.3-2.3-1S2,22,2,21.1V5.1c0-0.4,0.1-0.7,0.4-1s0.6-0.4,1-0.4H6c0.2-0.5,0.5-1,1-1.3s1-0.5,1.6-0.5H34.4z M4.8,21.1
		c0,0.1,0,0.2,0.1,0.3s0.2,0.1,0.3,0.1s0.2,0,0.3-0.1s0.1-0.2,0.1-0.3V6.5H4.8V21.1z M33,21.5V4.6H8.6v16.4l-0.1,0.5H33z M12.1,14.5
		c-0.2,0-0.4-0.1-0.5-0.2s-0.2-0.3-0.2-0.5V8.2c0-0.2,0.1-0.4,0.2-0.5s0.3-0.2,0.5-0.2h8c0.2,0,0.4,0.1,0.5,0.2s0.2,0.3,0.2,0.5v5.6
		c0,0.2-0.1,0.4-0.2,0.5s-0.3,0.2-0.5,0.2H12.1z M11.4,18c0,0.2,0.1,0.4,0.2,0.5s0.3,0.2,0.5,0.2h8c0.2,0,0.4-0.1,0.5-0.2
		s0.2-0.3,0.2-0.5v-1.4c0-0.2-0.1-0.4-0.2-0.5s-0.3-0.2-0.5-0.2h-8c-0.2,0-0.4,0.1-0.5,0.2s-0.2,0.3-0.2,0.5V18z M13.8,9.8v2.3h4.7
		V9.8H13.8z M22.7,9.6c0,0.2,0.1,0.4,0.2,0.5s0.3,0.2,0.5,0.2h6.1c0.2,0,0.4-0.1,0.5-0.2s0.2-0.3,0.2-0.5V8.2c0-0.2-0.1-0.4-0.2-0.5
		s-0.3-0.2-0.5-0.2h-6.1c-0.2,0-0.4,0.1-0.5,0.2S22.7,8,22.7,8.2V9.6z M22.7,13.8c0,0.2,0.1,0.4,0.2,0.5s0.3,0.2,0.5,0.2h6.1
		c0.2,0,0.4-0.1,0.5-0.2s0.2-0.3,0.2-0.5v-1.4c0-0.2-0.1-0.4-0.2-0.5s-0.3-0.2-0.5-0.2h-6.1c-0.2,0-0.4,0.1-0.5,0.2
		s-0.2,0.3-0.2,0.5V13.8z M22.7,18c0,0.2,0.1,0.4,0.2,0.5s0.3,0.2,0.5,0.2h6.1c0.2,0,0.4-0.1,0.5-0.2s0.2-0.3,0.2-0.5v-1.4
		c0-0.2-0.1-0.4-0.2-0.5s-0.3-0.2-0.5-0.2h-6.1c-0.2,0-0.4,0.1-0.5,0.2s-0.2,0.3-0.2,0.5V18z"/>
</g>
<g id="off">
</g>
<g id="zoom">
</g>
<g id="form">
	<g id="original" display="none">
	</g>
	<g id="new">
	</g>
</g>
<g id="Layer_7">
</g>
</svg>
