<svg width="12" height="13" id="d9c88d2f-acd2-421e-82f2-c47893d9e653" data-name="Layer 1" xmlns="http://www.w3.org/2000/svg" viewBox="0 0 22.37 29.81"><title>address</title><g id="0ea726b3-9f80-44de-b048-33b57fa3be09" data-name="Layer 1"><path d="M9.12,26.65Q6.21,22.45,5.28,21a16.64,16.64,0,0,1-1.81-3.52A10.62,10.62,0,0,1,3,14.19,10.88,10.88,0,0,1,4.51,8.6,11.32,11.32,0,0,1,8.59,4.52,10.83,10.83,0,0,1,14.19,3a10.78,10.78,0,0,1,5.59,1.51,11.4,11.4,0,0,1,4.08,4.08,10.78,10.78,0,0,1,1.51,5.59,10.62,10.62,0,0,1-.47,3.29A16,16,0,0,1,23.09,21q-.93,1.46-3.84,5.65l-3.9,5.59a1.47,1.47,0,0,1-2.34,0C12,30.77,10.71,28.9,9.12,26.65Z" transform="translate(-3 -3)" fill="#075c8f"/></g></svg>