<?xml version="1.0" encoding="utf-8"?>
<!-- Generator: Adobe Illustrator 22.1.0, SVG Export Plug-In . SVG Version: 6.00 Build 0)  -->
<svg version="1.1" baseProfile="tiny" xmlns="http://www.w3.org/2000/svg" xmlns:xlink="http://www.w3.org/1999/xlink" x="0px"
	 y="0px" viewBox="0 0 140 90" xml:space="preserve">
<g id="Layer_1">
</g>
<g id="off">
</g>
<g id="zoom">
</g>
<g id="form">
	<g id="original" display="none">
	</g>
	<g id="new">
	</g>
</g>
<g id="EU__x26__AU" display="none">
</g>
<g id="INT">
	<g>
		<g>
			<path fill="#075C8F" d="M22.1,55.6l2.3,7.2c0.5,1.6,2,2.7,3.8,2.7h0l7.5-0.1l-6.1,4.4c-1.4,1-2,2.8-1.4,4.4l2.4,7.2l-6.1-4.5
				c-0.7-0.5-1.5-0.8-2.3-0.8c-0.8,0-1.6,0.3-2.3,0.8l-6.1,4.5l2.4-7.1c0.6-1.6,0-3.4-1.4-4.4l-6.1-4.4l7.6,0.1
				c1.7,0,3.2-1.1,3.7-2.7L22.1,55.6 M22.1,47.7c-0.4,0-0.7,0.2-0.9,0.6L17,61.9c-0.1,0.4-0.5,0.6-0.9,0.6c0,0,0,0,0,0L1.9,62.4
				c0,0,0,0,0,0c-0.9,0-1.2,1.1-0.5,1.6L13,72.3c0.3,0.2,0.5,0.6,0.3,1L8.8,86.8C8.6,87.4,9.1,88,9.6,88c0.2,0,0.4-0.1,0.5-0.2
				l11.4-8.5c0.2-0.1,0.3-0.2,0.5-0.2s0.4,0.1,0.5,0.2l11.4,8.5c0.2,0.1,0.4,0.2,0.5,0.2c0.6,0,1.1-0.6,0.9-1.2L31,73.3
				c-0.1-0.4,0-0.8,0.3-1L42.9,64c0.7-0.5,0.4-1.6-0.5-1.6c0,0,0,0,0,0l-14.2,0.1c0,0,0,0,0,0c-0.4,0-0.7-0.3-0.9-0.6L23,48.3
				C22.9,47.9,22.5,47.7,22.1,47.7L22.1,47.7z"/>
		</g>
		<g>
			<path fill="#075C8F" d="M69.8,55.6l2.3,7.2c0.5,1.6,2,2.7,3.8,2.7h0l7.5-0.1l-6.1,4.4c-1.4,1-2,2.8-1.4,4.4l2.4,7.2l-6.1-4.5
				c-0.7-0.5-1.5-0.8-2.3-0.8s-1.6,0.3-2.3,0.8l-6.1,4.5l2.4-7.2c0.6-1.6,0-3.4-1.4-4.4l-6.1-4.4l7.6,0.1c1.7,0,3.2-1.1,3.7-2.7
				L69.8,55.6 M69.8,47.7c-0.4,0-0.7,0.2-0.9,0.6l-4.3,13.6c-0.1,0.4-0.5,0.6-0.9,0.6c0,0,0,0,0,0l-14.2-0.1c0,0,0,0,0,0
				c-0.9,0-1.2,1.1-0.5,1.6l11.6,8.2c0.3,0.2,0.5,0.6,0.3,1l-4.5,13.5c-0.2,0.6,0.3,1.2,0.9,1.2c0.2,0,0.4-0.1,0.5-0.2l11.4-8.5
				c0.2-0.1,0.3-0.2,0.5-0.2s0.4,0.1,0.5,0.2l11.4,8.5c0.2,0.1,0.4,0.2,0.5,0.2c0.6,0,1.1-0.6,0.9-1.2l-4.5-13.5
				c-0.1-0.4,0-0.8,0.3-1L90.6,64c0.7-0.5,0.4-1.6-0.5-1.6c0,0,0,0,0,0l-14.2,0.1c0,0,0,0,0,0c-0.4,0-0.7-0.3-0.9-0.6l-4.3-13.6
				C70.6,47.9,70.2,47.7,69.8,47.7L69.8,47.7z"/>
		</g>
		<g>
			<path fill="#84C561" d="M117.5,55.6l2.3,7.2c0.5,1.6,2,2.7,3.8,2.7h0l7.5-0.1l-6.1,4.4c-1.4,1-2,2.8-1.4,4.4l2.4,7.2l-6.1-4.5
				c-0.7-0.5-1.5-0.8-2.3-0.8c-0.8,0-1.6,0.3-2.3,0.8l-6.1,4.5l2.4-7.2c0.6-1.6,0-3.4-1.4-4.4l-6.1-4.4l7.6,0.1
				c1.7,0,3.2-1.1,3.7-2.7L117.5,55.6 M117.5,47.7c-0.4,0-0.7,0.2-0.9,0.6l-4.3,13.6c-0.1,0.4-0.5,0.6-0.9,0.6c0,0,0,0,0,0
				l-14.2-0.1c0,0,0,0,0,0c-0.9,0-1.2,1.1-0.5,1.6l11.6,8.2c0.3,0.2,0.5,0.6,0.3,1l-4.5,13.5c-0.2,0.6,0.3,1.2,0.9,1.2
				c0.2,0,0.4-0.1,0.5-0.2l11.4-8.5c0.2-0.1,0.3-0.2,0.5-0.2s0.4,0.1,0.5,0.2l11.4,8.5c0.2,0.1,0.4,0.2,0.5,0.2
				c0.6,0,1.1-0.6,0.9-1.2l-4.5-13.5c-0.1-0.4,0-0.8,0.3-1l11.6-8.2c0.7-0.5,0.4-1.6-0.5-1.6c0,0,0,0,0,0l-14.2,0.1c0,0,0,0,0,0
				c-0.4,0-0.7-0.3-0.9-0.6l-4.3-13.6C118.2,47.9,117.9,47.7,117.5,47.7L117.5,47.7z"/>
		</g>
	</g>
	<g>
		<g>
			<path fill="#075C8F" d="M46.1,9.9l2.3,7.2c0.5,1.6,2,2.7,3.8,2.7h0l7.5-0.1l-6.1,4.4c-1.4,1-2,2.8-1.4,4.4l2.4,7.2l-6.1-4.5
				c-0.7-0.5-1.5-0.8-2.3-0.8c-0.8,0-1.6,0.3-2.3,0.8l-6.1,4.5l2.4-7.1c0.6-1.6,0-3.4-1.4-4.4l-6.1-4.4l7.6,0.1
				c1.7,0,3.2-1.1,3.7-2.7L46.1,9.9 M46.1,2c-0.4,0-0.7,0.2-0.9,0.6L41,16.2c-0.1,0.4-0.5,0.6-0.9,0.6c0,0,0,0,0,0l-14.2-0.1
				c0,0,0,0,0,0c-0.9,0-1.2,1.1-0.5,1.6L37,26.6c0.3,0.2,0.5,0.6,0.3,1l-4.5,13.5c-0.2,0.6,0.3,1.2,0.9,1.2c0.2,0,0.4-0.1,0.5-0.2
				l11.4-8.5c0.2-0.1,0.3-0.2,0.5-0.2s0.4,0.1,0.5,0.2l11.4,8.5c0.2,0.1,0.4,0.2,0.5,0.2c0.6,0,1.1-0.6,0.9-1.2L55,27.6
				c-0.1-0.4,0-0.8,0.3-1l11.6-8.2c0.7-0.5,0.4-1.6-0.5-1.6c0,0,0,0,0,0l-14.2,0.1c0,0,0,0,0,0c-0.4,0-0.7-0.3-0.9-0.6L47,2.6
				C46.9,2.2,46.5,2,46.1,2L46.1,2z"/>
		</g>
		<g>
			<path fill="#075C8F" d="M93.8,9.9l2.3,7.2c0.5,1.6,2,2.7,3.8,2.7h0l7.5-0.1l-6.1,4.4c-1.4,1-2,2.8-1.4,4.4l2.4,7.2l-6.1-4.5
				c-0.7-0.5-1.5-0.8-2.3-0.8s-1.6,0.3-2.3,0.8l-6.1,4.5l2.4-7.2c0.6-1.6,0-3.4-1.4-4.4l-6.1-4.4l7.6,0.1c1.7,0,3.2-1.1,3.7-2.7
				L93.8,9.9 M93.8,2c-0.4,0-0.7,0.2-0.9,0.6l-4.3,13.6c-0.1,0.4-0.5,0.6-0.9,0.6c0,0,0,0,0,0l-14.2-0.1c0,0,0,0,0,0
				c-0.9,0-1.2,1.1-0.5,1.6l11.6,8.2c0.3,0.2,0.5,0.6,0.3,1l-4.5,13.5c-0.2,0.6,0.3,1.2,0.9,1.2c0.2,0,0.4-0.1,0.5-0.2l11.4-8.5
				c0.2-0.1,0.3-0.2,0.5-0.2s0.4,0.1,0.5,0.2l11.4,8.5c0.2,0.1,0.4,0.2,0.5,0.2c0.6,0,1.1-0.6,0.9-1.2l-4.5-13.5
				c-0.1-0.4,0-0.8,0.3-1l11.6-8.2c0.7-0.5,0.4-1.6-0.5-1.6c0,0,0,0,0,0l-14.2,0.1c0,0,0,0,0,0c-0.4,0-0.7-0.3-0.9-0.6L94.7,2.6
				C94.6,2.2,94.2,2,93.8,2L93.8,2z"/>
		</g>
	</g>
</g>
</svg>
