<svg width="22" height="20" id="5620615b-866f-4ca2-a4f1-d573def4acd5" data-name="Layer 1" xmlns="http://www.w3.org/2000/svg" viewBox="0 0 36.98 29.98"><title>twitter</title><g id="bf1cce3a-52fa-4fbf-b2a5-668e20d71b9d" data-name="Layer 1"><path d="M35.17,10.45v1a21.57,21.57,0,0,1-1.43,7.67A23.34,23.34,0,0,1,29.67,26,19.61,19.61,0,0,1,22.83,31,21.65,21.65,0,0,1,13.61,33,21.15,21.15,0,0,1,2,29.6a17.6,17.6,0,0,0,1.82.09,15.09,15.09,0,0,0,9.44-3.2A7.67,7.67,0,0,1,8.8,24.93a7.22,7.22,0,0,1-2.64-3.72,5.45,5.45,0,0,0,1.39.17,5.56,5.56,0,0,0,2-.35,7.37,7.37,0,0,1-4.33-2.6,7.2,7.2,0,0,1-1.73-4.76v-.09a8,8,0,0,0,3.46.95A7.32,7.32,0,0,1,3.56,8.21a7.27,7.27,0,0,1,1-3.81,21.9,21.9,0,0,0,6.88,5.53,21.22,21.22,0,0,0,8.7,2.34A8.46,8.46,0,0,1,20,10.54a7.29,7.29,0,0,1,2.21-5.33A7.23,7.23,0,0,1,27.55,3a7.39,7.39,0,0,1,5.54,2.34,15.86,15.86,0,0,0,4.85-1.82,7.27,7.27,0,0,1-3.38,4.16A15.87,15.87,0,0,0,39,6.55,16.4,16.4,0,0,1,35.17,10.45Z" transform="translate(-2 -3)" fill="#00a7e1"/></g></svg>