<?xml version="1.0" encoding="utf-8"?>
<!-- Generator: Adobe Illustrator 22.1.0, SVG Export Plug-In . SVG Version: 6.00 Build 0)  -->
<svg version="1.1" baseProfile="tiny" xmlns="http://www.w3.org/2000/svg" xmlns:xlink="http://www.w3.org/1999/xlink" x="0px"
	 y="0px" viewBox="0 0 65 97" xml:space="preserve">
<g id="Layer_1">
	<path fill="#075C8F" d="M63.4,58L57,50.6V12V3c0-1.7-1.3-3-3-3H3C1.3,0,0,1.3,0,3v9v69c0,1.7,1.3,3,3,3h33v3.8l7,6.6V97h3v-3.9
		l-7-6.6V84v-3V56.3c0-2.1,1.7-3.7,3.7-3.7h0.5c2.1,0,3.7,1.7,3.7,3.7v11.9l7,6.5l3,2.8V55.2l4.1,4.8c0.6,0.6,0.9,1.5,0.9,2.3V97h3
		V62.3C65,60.7,64.4,59.2,63.4,58z M3,3h51v6H3V3z M54,70.7l-4-3.7V56.3c0-3.7-3-6.7-6.7-6.7h-0.5c-3.7,0-6.7,3-6.7,6.7V81H3V12h51
		v35.2V70.7z"/>
	<g>
		<polygon fill="#84C561" points="9,53.8 6,53.2 12.1,27.8 19.3,44.3 21.6,37.4 27.7,40.4 35.7,18.7 40.8,36.2 44.2,28.4 51.7,39.7 
			49.3,41.3 44.8,34.6 40.2,44.8 35.3,28.3 29.3,44.6 23.4,41.6 19.7,52.7 12.9,37.2 		"/>
	</g>
	<g>
		<circle fill="#075C8F" cx="28.5" cy="75.5" r="2.5"/>
	</g>
</g>
<g id="off">
</g>
<g id="zoom">
</g>
<g id="form">
	<g id="original" display="none">
	</g>
	<g id="new">
	</g>
</g>
<g id="Layer_7">
</g>
</svg>
