<?xml version="1.0" encoding="utf-8"?>
<!-- Generator: Adobe Illustrator 22.1.0, SVG Export Plug-In . SVG Version: 6.00 Build 0)  -->
<svg version="1.1" baseProfile="tiny" xmlns="http://www.w3.org/2000/svg" xmlns:xlink="http://www.w3.org/1999/xlink" x="0px"
	 y="0px" viewBox="0 0 107 85" xml:space="preserve">
<g id="Layer_1">
	<g>
		<g>
			<path fill="#84C561" d="M31.5,38.1h-3c0-13.2,10.8-24,24-24v3C40.9,17.1,31.5,26.5,31.5,38.1z"/>
		</g>
	</g>
	<g>
		<path fill="#075C8F" d="M55.4,6.1C36.1,4.7,20,20,20,39c0,14.4,9.2,26.6,22,31.1V79h3v5h16v-5h3v-8.9c13.5-4.8,23-18.2,21.9-33.6
			C84.7,20.3,71.6,7.2,55.4,6.1z M58,76v3v2H48v-2v-3h-3v-5h16v5H58z M82.9,42c-1.1,11.7-9.3,21.6-20.4,25.5L61,68v0H45v0l-1.5-0.5
			C32.4,63.6,24.3,53.7,23.1,42C21.4,24.1,35.5,9,53,9S84.6,24.1,82.9,42z"/>
		<path fill="#075C8F" d="M16,37H2c-0.8,0-1.5,0.7-1.5,1.5S1.2,40,2,40h14c0.8,0,1.5-0.7,1.5-1.5S16.8,37,16,37z"/>
		<path fill="#075C8F" d="M104,37H90c-0.8,0-1.5,0.7-1.5,1.5S89.2,40,90,40h14c0.8,0,1.5-0.7,1.5-1.5S104.8,37,104,37z"/>
		<path fill="#075C8F" d="M25.8,13.5c0.3,0.3,0.7,0.4,1.1,0.4s0.8-0.1,1.1-0.4c0.6-0.6,0.6-1.5,0-2.1L18,1.4c-0.6-0.6-1.5-0.6-2.1,0
			c-0.6,0.6-0.6,1.5,0,2.1L25.8,13.5z"/>
		<path fill="#075C8F" d="M79.2,13.9c0.4,0,0.8-0.1,1.1-0.4l9.9-9.9c0.6-0.6,0.6-1.5,0-2.1c-0.6-0.6-1.5-0.6-2.1,0l-9.9,9.9
			c-0.6,0.6-0.6,1.5,0,2.1C78.4,13.8,78.8,13.9,79.2,13.9z"/>
	</g>
</g>
<g id="off">
</g>
<g id="zoom">
</g>
<g id="form">
	<g id="original" display="none">
	</g>
	<g id="new">
	</g>
</g>
<g id="Layer_7">
</g>
</svg>
