<svg width="29" height="33" id="72f9afee-b798-44f2-877a-8cbf0a3f9619" data-name="Layer 1" xmlns="http://www.w3.org/2000/svg" viewBox="0 0 44.36 35.93"><title>weibo</title><g id="a85bbc21-4c56-42e4-a4ef-84c9cd869d53" data-name="Layer 1"><path d="M40.46,22.73c-.63-2.08-2.34-3.58-5.11-4.5a2,2,0,0,1-.78-.35q-.18-.18,0-.78c.75-1.91.76-3.36,0-4.37a4.32,4.32,0,0,0-3.77-1.52,16.05,16.05,0,0,0-6.15,1.47H24.6c-.87.29-1.18.12-1-.52q.95-3,0-4.59a3.5,3.5,0,0,0-3.33-1.52A11.59,11.59,0,0,0,15,7.74a29,29,0,0,0-6.41,4.94A27.61,27.61,0,0,0,3.73,19,12.88,12.88,0,0,0,2,25.07a8.69,8.69,0,0,0,2.77,6.32,17.67,17.67,0,0,0,6.89,4.07,27.46,27.46,0,0,0,9,1.47A26.62,26.62,0,0,0,32.05,34.5,17.14,17.14,0,0,0,39,29Q41.32,25.69,40.46,22.73ZM31.71,28.8a12.07,12.07,0,0,1-4.5,3.64,18.52,18.52,0,0,1-6.58,1.82,18.77,18.77,0,0,1-6.8-.52,12.2,12.2,0,0,1-5.15-2.69,6.37,6.37,0,0,1-2.21-4.2A6.51,6.51,0,0,1,7.86,22.3a12.57,12.57,0,0,1,4.5-3.64,18.08,18.08,0,0,1,6.54-1.82,18.77,18.77,0,0,1,6.8.52,12.2,12.2,0,0,1,5.15,2.69,6.5,6.5,0,0,1,2.25,4.16A6.89,6.89,0,0,1,31.71,28.8Z" transform="translate(-2 -1)" fill="#df2029"/><path d="M21.4,20.57a8,8,0,0,0-5.28.43,7.1,7.1,0,0,0-3.72,3.46,5.34,5.34,0,0,0-.13,4.63A5.65,5.65,0,0,0,16,32.25a7.58,7.58,0,0,0,5.5-.35,6.87,6.87,0,0,0,3.85-3.72,5.13,5.13,0,0,0,0-4.72A5.77,5.77,0,0,0,21.4,20.57Zm-2.68,8a2.75,2.75,0,0,1-1.52,1.21,2.31,2.31,0,0,1-1.86-.09,1.92,1.92,0,0,1-1.08-1.26,2.07,2.07,0,0,1,.3-1.65A2.85,2.85,0,0,1,16,25.58a2.49,2.49,0,0,1,1.82,0A1.84,1.84,0,0,1,19,26.79,2.16,2.16,0,0,1,18.72,28.54Zm2.33-3a1.22,1.22,0,0,1-.56.48.81.81,0,0,1-.74,0,.77.77,0,0,1-.43-.48.7.7,0,0,1,.13-.61,1.54,1.54,0,0,1,.56-.48.71.71,0,0,1,.69,0,.54.54,0,0,1,.43.43A.8.8,0,0,1,21.05,25.55Z" transform="translate(-2 -1)"/><path d="M30.84,2.42a1.71,1.71,0,0,0,.35,1.65,1.51,1.51,0,0,0,1.65.48,8.42,8.42,0,0,1,9.48,5,8,8,0,0,1,.22,5.72A1.48,1.48,0,0,0,42.89,17a1.85,1.85,0,0,0,1.6.52,1.55,1.55,0,0,0,1.26-1.17,11,11,0,0,0-.35-8.14,10.93,10.93,0,0,0-5.2-5.72,11.38,11.38,0,0,0-8.05-1.21A1.64,1.64,0,0,0,30.84,2.42Z" transform="translate(-2 -1)" fill="#e99314"/><path d="M36.69,10.87A2.57,2.57,0,0,0,34.05,10a1.37,1.37,0,0,1-1.43-.43,1.63,1.63,0,0,1-.3-1.43,1.22,1.22,0,0,1,1-1,5.58,5.58,0,0,1,3.94.56,5.93,5.93,0,0,1,2.6,2.9A5.21,5.21,0,0,1,40,14.5a1.28,1.28,0,0,1-1.08,1,1.53,1.53,0,0,1-1.39-.43,1.34,1.34,0,0,1-.3-1.43A2.66,2.66,0,0,0,36.69,10.87Z" transform="translate(-2 -1)" fill="#e99314"/></g></svg>