<?xml version="1.0" encoding="UTF-8"?><svg id="Layer_2" xmlns="http://www.w3.org/2000/svg" viewBox="0 0 24 24"><g id="Layer_1-2"><path d="m16.57.82c3.65,0,6.62,2.97,6.62,6.62v9.13c0,3.65-2.97,6.62-6.62,6.62H7.43c-3.65,0-6.62-2.97-6.62-6.62V7.43C.82,3.79,3.79.82,7.43.82h9.13m0-.82H7.43C3.33,0,0,3.33,0,7.43v9.13c0,4.11,3.33,7.43,7.43,7.43h9.13c4.11,0,7.43-3.33,7.43-7.43V7.43c0-4.11-3.33-7.43-7.43-7.43h0Z" stroke-width="0"/><path d="m17.39,17.13l-4.22-6.13-.48-.69-3.02-4.38-.25-.36h-3.71l.9,1.31,4.01,5.83.48.69,3.22,4.68.25.36h3.71l-.9-1.31Zm-2.36.48l-3.35-4.86-.48-.69-3.88-5.64h1.67l3.14,4.56.48.69,4.09,5.94h-1.67Z" stroke-width="0"/><polygon points="11.2 12.04 11.68 12.74 11.11 13.39 6.78 18.44 5.71 18.44 10.64 12.7 11.2 12.04" stroke-width="0"/><polygon points="17.85 5.56 13.17 11 12.61 11.66 12.13 10.96 12.69 10.31 15.86 6.62 16.78 5.56 17.85 5.56" stroke-width="0"/></g></svg>