<svg width="26" height="19" id="50695829-00b4-4471-92dc-26d7dea99bf7" data-name="Layer 1" xmlns="http://www.w3.org/2000/svg" viewBox="0 0 41.3 29.05"><title>yt</title><g id="d21ba29d-7b85-4c72-bcda-087a9ebc8e84" data-name="Layer 1"><path d="M43.46,8.54a35.2,35.2,0,0,1,.76,6.2l.08,3.78-.08,3.78a33.83,33.83,0,0,1-.76,6.28,5.36,5.36,0,0,1-3.7,3.63,55,55,0,0,1-9.23.76l-6.88.08L16.77,33a52.8,52.8,0,0,1-9.23-.76,5.36,5.36,0,0,1-3.7-3.63,35.53,35.53,0,0,1-.76-6.28L3,18.52c0-1.11,0-2.37.08-3.78a33.37,33.37,0,0,1,.76-6.2A5.21,5.21,0,0,1,5.2,6.2,5.27,5.27,0,0,1,7.54,4.84a55,55,0,0,1,9.23-.76L23.64,4l6.88.08a52.8,52.8,0,0,1,9.23.76A5.21,5.21,0,0,1,42.09,6.2,5.14,5.14,0,0,1,43.46,8.54Zm-24,16.18,10.81-6.2L19.41,12.39Z" transform="translate(-3 -4)" fill="#df2029"/></g></svg>